<?xml version="1.0" encoding="UTF-8" standalone="no"?><!DOCTYPE svg PUBLIC "-//W3C//DTD SVG 1.1//EN" "http://www.w3.org/Graphics/SVG/1.1/DTD/svg11.dtd"><svg width="100%" height="100%" viewBox="0 0 852 415" version="1.1" xmlns="http://www.w3.org/2000/svg" xmlns:xlink="http://www.w3.org/1999/xlink" xml:space="preserve" xmlns:serif="http://www.serif.com/" style="fill-rule:evenodd;clip-rule:evenodd;stroke-linejoin:round;stroke-miterlimit:2;"><g id="logo-3"><path d="M797.36,146.788c0.013,0 0.026,0.006 0.034,0.016c0.008,0.01 0.012,0.023 0.01,0.036c-0.395,2.177 -13.024,71.74 -13.024,71.74l-172.191,0l0,-71.792l185.171,0Z" style="fill:#163a5f;"/><rect x="121.089" y="0.15" width="82.677" height="414.544" style="fill:#163a5f;"/><path d="M324.803,0.034l-24.556,70.866l-300.247,0l0,-70.866l324.803,-0Z" style="fill:#163a5f;"/><rect x="609.432" y="0.15" width="82.677" height="414.544" style="fill:#163a5f;"/><path d="M851.413,0.034l-14.136,69.866l-227.088,1l0,-70.866l241.224,0Z" style="fill:#163a5f;"/><path d="M418.384,350.859l-136.522,64.141l-17.846,0l128.315,-415l67.459,0l129.029,415l-18.56,-0l-136.821,-64.282l7.494,-51.713l-29.98,-0.024l7.434,51.877Zm7.676,-280.859c-5.274,42.423 -12.938,80.758 -23.456,114.21c-9.02,28.689 -20.14,51.786 -33.653,72.79c18.604,-6.521 38.225,-16.85 56.863,-16.987c19.433,-0.143 37.884,10.186 57.354,16.987c-29.281,-45.925 -47.308,-108.606 -57.108,-187Z" style="fill:#163a5f;"/></g></svg>