<?xml version="1.0" encoding="UTF-8" standalone="no"?><!DOCTYPE svg PUBLIC "-//W3C//DTD SVG 1.1//EN" "http://www.w3.org/Graphics/SVG/1.1/DTD/svg11.dtd"><svg width="100%" height="100%" viewBox="0 0 1086 415" version="1.1" xmlns="http://www.w3.org/2000/svg" xmlns:xlink="http://www.w3.org/1999/xlink" xml:space="preserve" xmlns:serif="http://www.serif.com/" style="fill-rule:evenodd;clip-rule:evenodd;stroke-linejoin:round;stroke-miterlimit:2;"><rect x="761.189" y="147.788" width="324.224" height="71.792" style="fill:#fff;"/><rect x="109.267" y="0.15" width="112.321" height="414.544" style="fill:#fff;"/><path d="M333.803,0.034l-30.375,70.866l-303.429,0l0,-70.866l333.803,-0Z" style="fill:#fff;"/><rect x="761.189" y="0.15" width="111.163" height="414.544" style="fill:#fff;"/><rect x="761.189" y="0.034" width="324.224" height="70.866" style="fill:#fff;"/><path d="M288.916,415l-25,0l179.75,-415l94.5,0l180.75,415l-26,-0l-202,-104.748l-202,104.748Zm202,-345c-7.388,42.423 -18.124,80.758 -32.858,114.21c-12.636,28.689 -28.213,53.786 -47.142,74.79c53.236,-13.32 106.569,-13.324 160,0c-41.018,-45.925 -66.271,-110.606 -80,-189Z" style="fill:#fff;"/></svg>